<?xml version="1.0" standalone="no"?>
<!DOCTYPE svg PUBLIC "-//W3C//DTD SVG 20010904//EN"
 "http://www.w3.org/TR/2001/REC-SVG-20010904/DTD/svg10.dtd">
<svg version="1.0" xmlns="http://www.w3.org/2000/svg"
 width="1026.000000pt" height="1026.000000pt" viewBox="0 0 1026.000000 1026.000000"
 preserveAspectRatio="xMidYMid meet">
<metadata>
Created by potrace 1.11, written by Peter Selinger 2001-2013
</metadata>
<g transform="translate(0.000000,1026.000000) scale(0.100000,-0.100000)"
fill="#000000" stroke="none">
<path d="M6720 10251 c0 -6 -13 -18 -30 -28 -16 -9 -30 -23 -30 -31 0 -7 -4
-10 -10 -7 -5 3 -10 1 -10 -5 0 -6 -4 -9 -9 -5 -5 3 -12 -4 -16 -15 -3 -11
-12 -19 -18 -17 -7 1 -11 -4 -9 -11 1 -8 -2 -11 -8 -7 -5 3 -13 -1 -16 -9 -3
-9 -10 -14 -14 -11 -5 3 -11 -4 -15 -15 -4 -11 -11 -18 -16 -15 -5 4 -9 1 -9
-5 0 -6 -13 -23 -28 -38 -15 -15 -46 -50 -69 -79 -22 -29 -44 -49 -48 -45 -5
4 -5 2 -2 -4 3 -6 -1 -20 -11 -30 -26 -29 -57 -78 -54 -87 1 -4 -5 -10 -13
-13 -8 -4 -15 -14 -15 -23 0 -9 -9 -24 -20 -34 -12 -10 -18 -22 -15 -27 3 -6
2 -10 -3 -10 -4 0 -14 -16 -22 -35 -8 -19 -18 -35 -24 -35 -5 0 -7 -3 -3 -6 3
-4 -2 -23 -13 -44 -11 -21 -16 -40 -13 -44 4 -3 1 -6 -5 -6 -7 0 -12 -9 -12
-20 0 -11 -5 -20 -12 -20 -6 0 -9 -3 -5 -6 3 -4 0 -21 -8 -39 -7 -19 -10 -36
-7 -40 4 -3 2 -9 -4 -13 -6 -4 -16 -34 -24 -67 -7 -33 -15 -64 -16 -70 -5 -18
-12 -59 -19 -110 -4 -27 -10 -66 -13 -85 -9 -61 -2 -440 9 -440 3 0 7 -15 7
-32 3 -44 6 -61 15 -75 5 -8 3 -13 -3 -13 -7 0 -8 -6 -1 -17 5 -10 11 -29 12
-43 2 -14 9 -28 14 -32 6 -5 5 -8 -3 -8 -10 0 -10 -3 0 -14 10 -11 18 -10 48
7 19 10 38 24 42 30 4 6 10 8 14 5 3 -4 24 4 45 18 21 13 39 21 39 18 0 -3 10
0 23 8 46 29 236 88 270 82 9 -1 17 2 17 8 0 6 15 8 35 6 19 -2 35 -1 35 3 0
4 59 7 130 7 90 0 130 -3 130 -11 0 -8 3 -8 11 0 7 7 20 8 33 4 11 -5 29 -7
39 -6 9 2 17 0 17 -4 0 -4 16 -8 36 -9 20 -2 45 -7 54 -12 10 -5 20 -6 24 -3
3 3 6 2 6 -4 0 -6 9 -9 20 -6 11 3 20 1 20 -4 0 -5 11 -10 25 -11 24 -2 25 0
20 36 -10 66 -12 77 -18 92 -3 8 -10 38 -17 65 -7 28 -14 57 -17 65 -3 8 -17
44 -30 80 -13 36 -25 70 -27 75 -1 6 -9 24 -16 40 -7 17 -14 36 -16 44 -1 8
-8 17 -14 21 -6 4 -12 17 -13 28 -1 12 -5 22 -9 22 -4 0 -8 7 -8 15 0 8 -5 15
-11 15 -5 0 -7 5 -4 10 3 6 1 10 -6 10 -7 0 -9 3 -6 6 4 4 -3 20 -14 35 -11
16 -17 29 -12 29 4 0 3 4 -2 8 -12 8 -46 59 -45 67 0 3 -9 15 -20 27 -11 12
-20 27 -20 33 0 6 -9 17 -20 25 -11 8 -20 18 -20 23 0 11 -70 99 -87 110 -7 4
-13 13 -13 18 0 6 -10 20 -22 31 l-23 20 30 -18 c17 -10 35 -22 41 -28 7 -6
31 -27 55 -46 46 -37 199 -185 199 -193 0 -6 44 -59 77 -94 13 -13 30 -38 39
-56 9 -18 20 -34 24 -37 10 -8 80 -130 80 -141 0 -5 5 -9 10 -9 6 0 10 -9 10
-20 0 -11 4 -20 10 -20 5 0 9 -3 8 -7 0 -5 7 -26 17 -48 25 -56 38 -88 40
-100 2 -5 13 -41 25 -79 12 -37 23 -80 24 -96 0 -22 5 -27 26 -25 14 1 38 7
55 14 16 7 57 19 90 27 55 14 99 26 150 40 11 3 30 6 43 7 12 1 22 4 22 7 0 3
14 7 32 8 17 2 37 7 44 13 8 7 13 6 16 -3 4 -10 8 -10 21 1 10 7 17 10 17 6 0
-4 7 -2 15 5 12 10 15 10 15 -1 0 -9 3 -10 8 -4 4 6 18 11 32 13 14 1 31 3 38
4 12 1 17 59 6 71 -6 5 -15 79 -15 120 0 9 -4 17 -8 17 -5 0 -8 8 -8 18 1 17
-10 64 -20 92 -8 21 -14 43 -15 58 -1 6 -5 12 -9 12 -5 0 -6 7 -3 15 4 8 1 15
-6 15 -7 0 -10 7 -6 15 3 8 0 15 -6 15 -6 0 -9 3 -5 6 3 4 -5 28 -19 55 -13
27 -21 49 -17 49 4 0 -2 7 -13 15 -10 8 -15 15 -10 15 5 0 2 8 -5 17 -12 14
-12 16 1 9 11 -6 11 -4 -1 6 -9 7 -19 23 -23 36 -4 12 -11 22 -16 22 -5 0 -7
7 -4 15 4 9 0 15 -10 15 -9 0 -16 7 -16 15 0 15 -19 55 -31 65 -3 3 -21 28
-39 55 -19 28 -37 52 -42 53 -4 2 -8 9 -8 16 0 7 -10 22 -22 33 -32 28 -58 61
-58 73 0 6 -7 10 -15 10 -8 0 -15 5 -15 11 0 12 -100 112 -175 174 -26 22 -62
52 -80 68 -18 15 -38 27 -44 27 -6 0 -11 5 -11 10 0 6 -7 10 -15 10 -8 0 -15
5 -15 11 0 5 -15 16 -33 24 -19 8 -39 21 -47 29 -7 9 -19 16 -26 16 -8 0 -14
4 -14 8 0 4 -25 19 -55 32 -30 13 -55 28 -55 32 0 4 -4 8 -10 8 -5 0 -47 18
-94 40 -46 22 -88 40 -94 40 -5 0 -15 7 -22 15 -14 17 -50 21 -50 6z"/>
<path d="M8090 8614 c0 -6 -12 -11 -27 -12 -16 0 -44 -4 -63 -8 -19 -3 -45 -7
-57 -7 -13 -1 -23 -5 -23 -11 0 -5 -3 -7 -6 -4 -3 4 -20 2 -37 -4 -18 -5 -40
-10 -49 -10 -10 1 -18 -4 -18 -9 0 -6 -4 -8 -8 -5 -5 3 -22 -2 -38 -10 -16 -9
-31 -15 -34 -15 -17 1 -50 -13 -50 -20 0 -5 -3 -8 -7 -7 -13 3 -83 -25 -83
-34 0 -4 -8 -8 -19 -8 -10 0 -24 -6 -30 -14 -7 -8 -23 -17 -36 -20 -14 -4 -25
-11 -25 -17 0 -6 -5 -7 -11 -3 -7 4 -10 1 -7 -7 3 -8 11 -13 17 -11 6 1 11 -5
11 -14 0 -8 4 -13 9 -10 4 3 19 -3 31 -14 22 -19 35 -24 53 -21 4 0 7 -5 7
-13 0 -7 14 -19 30 -26 17 -7 30 -16 30 -21 0 -5 6 -9 13 -9 6 0 27 -14 45
-31 17 -16 32 -27 32 -24 0 3 16 -9 34 -27 51 -48 66 -60 67 -51 0 4 4 -1 8
-11 8 -21 51 -33 51 -14 0 6 3 9 6 5 4 -3 28 5 55 18 27 14 56 25 64 25 9 0
14 4 11 9 -4 5 2 8 11 7 10 -2 25 0 33 5 17 8 86 29 115 34 11 2 20 4 20 5 0
4 73 12 117 13 27 1 48 4 48 7 0 3 11 5 25 5 14 0 25 -2 25 -5 0 -3 21 -5 48
-5 54 1 154 -22 112 -25 -14 -1 -28 -2 -32 -1 -5 0 -8 -4 -8 -10 0 -5 -4 -8
-8 -5 -5 3 -40 -2 -78 -10 -38 -8 -80 -17 -94 -20 -14 -3 -29 -9 -34 -14 -5
-5 -15 -6 -22 -3 -8 3 -14 -1 -14 -8 0 -7 -3 -9 -7 -6 -3 4 -12 2 -20 -4 -7
-6 -13 -9 -13 -5 0 4 -15 -1 -32 -11 -18 -9 -42 -17 -52 -18 -11 0 -21 -6 -23
-12 -3 -7 -13 -13 -24 -13 -11 0 -22 -6 -25 -14 -3 -8 -12 -12 -20 -9 -7 3
-17 -2 -20 -11 -3 -9 -10 -13 -15 -10 -5 3 -9 0 -9 -5 0 -6 -7 -11 -16 -11 -8
0 -13 -4 -9 -9 3 -5 -1 -11 -10 -13 -10 -2 -3 -16 28 -49 92 -101 117 -131
117 -140 0 -6 4 -8 9 -5 5 3 12 -5 15 -19 4 -14 10 -25 15 -25 4 0 23 -22 42
-50 19 -27 38 -50 42 -50 5 0 5 -4 2 -10 -3 -5 -2 -10 4 -10 5 0 12 -9 16 -20
5 -17 14 -19 70 -16 35 1 71 8 79 15 9 8 16 10 16 6 0 -4 6 -2 13 4 8 6 17 8
20 4 4 -3 7 -2 7 4 0 6 14 16 31 23 47 20 171 135 250 233 41 50 149 215 149
227 0 5 5 10 10 10 6 0 10 6 10 14 0 8 7 22 16 30 8 9 13 16 10 16 -3 0 3 15
14 33 14 22 20 50 20 92 l0 60 -65 43 c-73 47 -204 114 -262 132 -21 7 -42 15
-48 19 -5 3 -16 6 -23 7 -8 2 -21 6 -30 10 -9 4 -28 9 -42 11 -14 2 -38 8 -54
13 -15 5 -32 7 -36 5 -5 -3 -12 -1 -15 5 -4 6 -15 8 -26 5 -11 -4 -19 -2 -19
5 0 8 -6 8 -20 0 -11 -6 -20 -7 -20 -3 0 7 -39 11 -178 16 -23 1 -42 -1 -42
-5 0 -11 -23 -5 -32 7 -5 6 -8 6 -8 -1z"/>
<path d="M6584 8419 c-3 -6 -38 -13 -91 -21 -7 -1 -13 -5 -13 -10 0 -5 -4 -7
-9 -4 -5 3 -26 -2 -47 -11 -22 -9 -42 -16 -46 -15 -5 1 -8 -3 -8 -10 0 -6 -3
-9 -6 -5 -3 3 -24 -5 -45 -19 -21 -13 -39 -22 -39 -19 0 3 -11 -6 -25 -21 -14
-15 -25 -23 -25 -19 0 8 -123 -117 -152 -156 -10 -13 -18 -29 -18 -36 0 -7 -4
-13 -8 -13 -9 0 -36 -48 -37 -65 0 -5 -5 -15 -11 -22 -17 -18 -77 -210 -69
-223 3 -5 1 -10 -4 -10 -6 0 -10 -3 -10 -7 3 -19 -2 -27 -9 -16 -7 11 -149 20
-187 13 -5 -1 -13 -2 -18 -1 -4 1 -28 -4 -55 -10 -63 -14 -64 -15 -87 -23
-107 -40 -132 -51 -145 -61 -8 -6 -28 -17 -45 -25 -30 -15 -44 -24 -70 -48 -8
-7 -15 -11 -15 -7 0 3 -12 -2 -27 -12 -14 -9 -33 -18 -41 -19 -8 -2 -18 -6
-21 -11 -3 -4 -13 -9 -21 -11 -8 -2 -28 -10 -45 -17 -49 -22 -93 -34 -99 -28
-3 4 -6 2 -6 -3 0 -10 -97 -40 -112 -36 -5 1 -8 -3 -8 -9 0 -5 -4 -8 -9 -5 -5
3 -32 -1 -60 -10 -28 -8 -56 -12 -61 -9 -6 3 -10 2 -10 -3 0 -5 -6 -9 -12 -9
-7 -1 -29 -4 -48 -7 -19 -4 -48 -9 -65 -11 -46 -6 -59 -10 -74 -19 -10 -7 -12
-6 -6 4 6 9 4 11 -6 5 -7 -5 -32 -10 -54 -12 -77 -7 -90 -8 -100 -14 -5 -4
-22 -6 -37 -5 -16 1 -28 -2 -28 -7 0 -4 -4 -6 -9 -3 -5 4 -12 0 -14 -6 -4 -10
-6 -10 -6 0 -1 10 -6 10 -21 2 -11 -6 -20 -8 -20 -4 0 3 -6 2 -12 -3 -7 -6
-21 -9 -30 -8 -10 2 -18 -1 -18 -5 0 -5 -8 -9 -17 -8 -18 0 -50 -6 -83 -17
-10 -3 -27 -7 -37 -9 -45 -9 -199 -59 -212 -70 -12 -8 -13 -8 -7 2 5 8 -8 5
-36 -7 -70 -31 -150 -61 -164 -61 -8 0 -14 -4 -14 -10 0 -5 -7 -7 -15 -4 -8 4
-15 1 -15 -5 0 -6 -3 -10 -7 -9 -5 1 -26 -6 -47 -15 -22 -10 -50 -20 -63 -23
-13 -4 -23 -10 -23 -15 0 -5 -4 -9 -9 -9 -5 0 -22 -5 -38 -11 -15 -6 -30 -10
-32 -9 -2 1 -7 -2 -10 -7 -3 -5 -25 -17 -48 -27 -24 -11 -43 -24 -43 -29 0 -6
-3 -8 -6 -5 -3 4 -29 -7 -57 -23 -29 -16 -64 -34 -79 -40 -16 -6 -28 -15 -28
-20 0 -5 -3 -8 -7 -7 -5 1 -18 -3 -29 -10 -15 -8 -32 -8 -53 -2 -17 5 -34 9
-36 9 -3 1 -6 1 -7 2 -2 0 -12 2 -23 4 -52 8 -100 17 -119 24 -12 3 -33 6 -48
5 -16 0 -28 2 -28 5 0 4 -10 7 -22 8 -77 4 -98 7 -98 16 0 5 -7 4 -15 -3 -8
-7 -15 -8 -15 -3 0 5 -10 10 -22 10 -13 1 -57 3 -99 6 -42 2 -81 7 -87 11 -7
4 -12 1 -12 -6 0 -10 -2 -10 -9 1 -14 22 -46 -18 -66 -83 -10 -31 -22 -56 -27
-56 -5 0 -6 -5 -3 -10 4 -6 1 -17 -5 -25 -7 -8 -9 -15 -5 -15 4 0 2 -6 -4 -13
-6 -8 -8 -17 -4 -20 3 -4 1 -7 -6 -7 -7 0 -10 -4 -6 -9 3 -5 1 -12 -5 -16 -5
-3 -10 -22 -10 -41 0 -21 4 -33 10 -29 5 3 10 -1 10 -9 0 -9 5 -16 10 -16 6 0
10 -7 10 -15 0 -8 5 -15 12 -15 6 0 9 -3 5 -6 -3 -3 3 -22 13 -41 10 -19 16
-41 13 -49 -3 -8 0 -14 6 -14 6 0 11 -15 11 -32 0 -60 3 -73 14 -87 8 -11 8
-13 -2 -7 -8 5 -11 1 -9 -15 3 -16 -12 -39 -52 -80 -104 -108 -132 -139 -124
-139 4 0 -3 -9 -15 -21 -12 -11 -48 -55 -80 -97 -31 -42 -60 -78 -64 -80 -5
-2 -8 -9 -8 -15 0 -7 -13 -27 -29 -46 -17 -19 -28 -38 -25 -42 2 -4 -3 -10
-12 -13 -8 -3 -12 -10 -9 -16 3 -5 1 -10 -4 -10 -6 0 -11 -7 -11 -15 0 -8 -4
-15 -10 -15 -5 0 -10 -9 -10 -21 0 -11 -4 -18 -8 -15 -5 3 -15 -10 -22 -29 -8
-19 -16 -35 -19 -35 -3 0 -15 -20 -26 -45 -11 -25 -23 -45 -27 -45 -5 0 -7 -3
-6 -7 1 -5 -19 -51 -44 -103 -70 -146 -91 -194 -91 -207 0 -7 -4 -13 -9 -13
-4 0 -8 -8 -8 -17 0 -10 -6 -29 -13 -43 -8 -14 -20 -47 -27 -73 -8 -26 -17
-47 -20 -47 -3 0 -6 -10 -7 -22 -1 -11 -6 -24 -10 -27 -4 -3 -9 -10 -10 -16
-1 -5 -18 -56 -37 -113 -20 -56 -36 -109 -36 -118 0 -8 -4 -13 -8 -10 -4 2 -8
-5 -9 -17 -1 -29 -9 -62 -21 -84 -5 -10 -8 -28 -7 -40 1 -13 -3 -23 -8 -23 -5
0 -7 -7 -3 -15 3 -8 1 -15 -3 -15 -5 0 -7 -9 -4 -20 3 -11 1 -20 -4 -20 -5 0
-9 -8 -9 -17 -1 -10 -4 -36 -9 -58 -4 -22 -9 -49 -10 -60 -2 -11 -4 -21 -5
-22 -2 -2 -3 -11 -4 -20 -1 -10 -5 -24 -9 -30 -5 -8 -3 -13 5 -13 8 0 9 -3 3
-8 -5 -4 -11 -16 -11 -27 -1 -11 -5 -35 -8 -53 -5 -26 -4 -32 6 -26 10 6 10 4
0 -8 -7 -9 -15 -46 -16 -81 -2 -36 -6 -69 -8 -74 -2 -4 -3 -36 -3 -70 1 -38
-3 -63 -10 -63 -6 0 -7 -3 0 -8 6 -4 11 -69 12 -152 1 -139 8 -241 19 -305 8
-48 17 -128 17 -152 -1 -13 3 -23 7 -23 5 0 7 -11 5 -25 -1 -14 1 -25 5 -25 4
0 6 -10 5 -23 -1 -12 0 -26 4 -32 6 -11 9 -28 13 -68 1 -15 6 -27 11 -27 5 0
6 -7 3 -16 -4 -9 -1 -23 5 -30 6 -8 9 -14 6 -14 -4 0 0 -19 9 -42 8 -22 12
-43 10 -46 -3 -2 1 -17 10 -33 8 -16 12 -29 8 -29 -4 0 0 -8 7 -17 9 -10 9
-14 2 -10 -8 5 -8 -1 2 -19 8 -15 12 -31 9 -36 -3 -4 0 -8 5 -8 6 0 11 -8 11
-18 0 -10 6 -24 13 -31 8 -10 8 -12 0 -7 -7 4 -6 -5 4 -24 8 -17 16 -39 18
-48 2 -9 4 -19 5 -22 1 -3 2 -9 1 -13 -1 -4 6 -10 14 -13 8 -3 13 -10 10 -15
-3 -4 1 -25 10 -46 9 -21 16 -40 16 -43 1 -3 5 -10 11 -17 5 -7 7 -16 4 -22
-3 -5 1 -12 9 -15 8 -3 15 -9 14 -13 -1 -4 0 -11 1 -15 1 -5 3 -11 4 -15 1 -5
15 -35 31 -68 16 -33 28 -63 27 -67 -1 -5 3 -8 9 -8 5 0 7 -4 4 -10 -3 -5 -1
-10 4 -10 6 0 11 -9 11 -19 0 -11 3 -21 8 -23 13 -5 52 -85 45 -92 -3 -3 -2
-6 4 -6 5 0 18 -18 28 -40 10 -22 21 -40 24 -40 3 0 13 -15 20 -32 18 -40 123
-205 148 -233 10 -11 20 -24 22 -30 7 -20 36 -60 48 -68 7 -4 13 -14 13 -22 0
-8 9 -20 20 -27 11 -7 20 -16 20 -21 0 -8 11 -23 42 -57 9 -10 14 -21 11 -24
-4 -3 2 -6 12 -6 10 0 16 -3 12 -6 -3 -3 5 -18 19 -32 13 -15 24 -30 24 -35 0
-4 5 -5 10 -2 5 3 10 1 10 -5 0 -6 6 -17 13 -24 7 -8 29 -33 48 -56 18 -23 40
-48 46 -55 7 -8 13 -17 13 -21 0 -4 7 -14 15 -23 27 -28 65 -79 65 -85 0 -4 9
-16 20 -28 11 -12 20 -28 20 -35 0 -7 5 -13 10 -13 6 0 10 -7 10 -15 0 -8 5
-15 10 -15 6 0 10 -6 10 -14 0 -7 7 -19 15 -26 9 -7 13 -15 11 -17 -2 -3 9
-25 24 -50 16 -25 27 -49 25 -53 -3 -5 2 -10 10 -14 8 -3 15 -13 15 -23 0 -10
7 -27 15 -37 8 -10 12 -23 9 -27 -3 -5 0 -9 5 -9 6 0 10 -3 9 -7 -4 -12 24
-107 33 -117 5 -6 9 -20 9 -33 0 -13 5 -23 10 -23 6 0 10 -7 10 -15 0 -28 73
-158 104 -187 10 -10 15 -18 10 -18 -4 0 10 -17 31 -37 22 -21 39 -41 37 -45
-1 -5 4 -8 10 -8 7 0 24 -12 37 -25 13 -14 29 -25 37 -25 8 0 14 -4 14 -8 0
-7 37 -30 60 -37 3 -1 12 -5 20 -8 43 -19 100 -35 100 -29 0 4 4 2 8 -4 4 -6
36 -22 72 -34 51 -18 91 -24 183 -27 65 -2 116 0 114 4 -3 5 14 9 36 10 56 2
81 6 88 16 3 4 19 10 35 13 16 3 32 11 36 17 4 7 8 8 8 4 0 -5 24 5 54 21 30
17 57 28 60 25 3 -4 6 -1 6 5 0 7 7 12 15 12 8 0 15 4 15 8 0 5 16 17 35 28
19 10 35 22 35 26 0 4 7 5 15 2 8 -4 15 -1 15 6 0 6 5 8 10 5 6 -3 10 -1 10 6
0 7 3 10 6 6 4 -3 21 1 38 10 17 10 37 16 44 15 6 -2 12 3 12 9 0 7 3 10 6 6
4 -3 19 0 35 9 16 8 30 14 31 13 7 -2 64 15 74 23 7 5 16 8 20 7 5 -1 12 0 17
1 4 1 12 4 17 5 6 1 11 3 13 4 2 2 14 5 62 15 6 1 15 4 20 7 6 4 18 5 28 4 9
-2 17 2 17 8 0 5 3 7 7 4 3 -4 12 -2 19 4 8 7 14 7 19 -1 5 -8 11 -8 21 1 7 6
21 9 29 5 8 -3 15 -2 15 3 0 4 6 8 13 8 6 1 32 4 57 7 25 4 63 9 85 12 22 3
51 7 65 9 14 2 43 7 65 9 22 3 54 10 72 15 17 5 34 7 37 3 3 -3 6 0 6 5 0 6 8
10 18 8 9 -1 21 0 27 3 5 3 16 7 25 9 73 12 130 26 130 32 0 4 10 8 23 8 39 3
117 26 117 35 0 5 4 7 9 4 5 -3 26 1 46 10 20 8 40 13 43 10 3 -4 14 1 24 11
10 9 18 13 18 9 0 -3 12 0 28 7 15 8 33 12 40 10 6 -3 12 0 12 5 0 5 12 13 28
18 45 12 89 30 114 44 10 6 25 10 33 10 8 0 15 5 15 11 0 5 5 7 10 4 6 -3 10
-2 10 4 0 6 6 8 14 5 7 -3 21 2 30 12 10 9 25 18 34 18 19 2 75 27 82 37 3 4
12 9 20 11 8 2 21 9 28 16 8 7 18 10 23 7 5 -4 9 -3 9 2 0 4 20 17 45 28 25
11 45 23 45 28 0 4 5 5 10 2 6 -3 10 -3 10 2 0 4 18 17 40 27 22 11 40 23 40
28 0 5 4 7 9 3 5 -3 15 0 23 7 21 20 127 88 137 88 5 0 11 4 13 8 2 4 32 28
68 52 36 25 67 47 70 50 3 3 25 21 50 40 76 58 83 64 107 88 13 12 26 22 28
22 2 0 19 15 38 33 19 17 58 55 88 83 30 27 71 69 92 92 20 23 37 39 37 35 0
-3 16 15 36 40 20 26 41 47 45 47 5 0 9 7 9 16 0 8 5 12 10 9 6 -3 10 -1 10 4
0 10 9 22 72 95 15 17 28 37 28 44 0 7 4 11 9 7 5 -3 12 3 15 13 4 10 14 27
24 38 9 10 30 39 47 64 16 25 34 48 40 52 7 5 7 8 0 8 -5 0 -3 6 6 13 8 7 18
19 22 27 4 8 16 29 27 45 11 17 24 40 30 52 5 13 14 23 20 23 5 0 9 3 8 8 -4
14 13 52 23 52 6 0 8 4 5 8 -3 5 3 18 14 29 10 12 16 24 13 27 -4 3 -1 6 5 6
7 0 11 3 10 8 -1 4 16 45 39 92 22 47 40 87 40 90 0 3 6 16 13 30 8 14 15 27
15 30 1 3 9 22 18 44 9 21 17 41 17 45 0 3 7 19 15 35 8 15 12 32 9 37 -3 5 0
9 6 9 6 0 8 5 5 10 -3 5 -1 10 5 10 6 0 9 4 6 8 -3 5 1 20 8 33 14 28 30 80
28 92 -1 4 3 7 9 7 5 0 8 4 4 9 -3 5 0 15 7 23 7 7 13 18 13 23 1 6 11 44 25
85 13 41 25 80 26 85 1 6 11 40 22 77 11 37 17 70 14 73 -3 3 0 5 6 5 6 0 9
10 7 22 -3 12 0 27 6 35 7 7 9 13 6 13 -3 0 -1 15 4 33 5 17 12 55 15 82 4 28
9 55 13 60 3 6 7 21 7 35 3 42 12 102 18 107 3 3 1 13 -4 23 -5 10 -6 21 -2
25 4 3 8 11 8 16 1 5 2 10 3 12 13 15 19 526 7 552 -6 13 -5 20 3 23 6 2 8 8
5 14 -3 5 3 12 15 15 11 3 19 9 16 13 -3 5 4 11 15 15 11 3 20 11 20 16 0 6 5
7 10 4 6 -3 10 -2 10 3 0 5 8 12 18 15 9 3 37 13 62 22 25 10 55 17 68 17 18
0 25 9 34 44 7 24 16 44 21 44 4 0 5 5 1 11 -3 6 -2 14 4 18 6 3 13 18 16 33
2 14 11 40 20 57 9 17 16 32 15 33 0 2 4 16 10 31 6 16 11 31 11 33 0 9 -30
36 -30 27 0 -4 -5 0 -11 10 -5 9 -17 17 -25 17 -8 0 -12 4 -9 10 3 6 -1 10 -9
10 -9 0 -16 5 -16 10 0 6 -7 10 -17 10 -9 0 -13 3 -10 7 4 4 -5 13 -20 20 -44
21 -93 60 -85 68 4 3 2 6 -3 4 -11 -2 -47 11 -55 20 -12 15 -87 61 -98 61 -7
0 -12 4 -12 9 0 5 -8 11 -17 14 -24 8 -77 40 -81 50 -2 4 -10 7 -17 7 -11 0
-25 20 -29 40 -1 3 -4 10 -7 15 -3 6 -12 30 -19 55 -8 25 -20 56 -27 69 -6 14
-10 28 -7 33 3 4 0 8 -5 8 -6 0 -10 3 -9 8 3 9 -42 123 -54 136 -4 6 -8 21 -8
34 0 15 -4 21 -11 16 -7 -4 -10 -1 -7 7 3 8 -2 20 -9 28 -8 7 -17 26 -20 42
-3 16 -12 34 -19 40 -8 6 -14 20 -14 30 0 11 -5 19 -11 19 -5 0 -7 5 -4 10 3
6 1 10 -5 10 -6 0 -9 4 -6 9 4 5 1 11 -4 13 -6 2 -12 10 -13 18 -2 8 -7 22
-12 30 -5 8 -19 34 -31 57 -11 24 -24 40 -28 36 -3 -3 -6 3 -6 14 0 11 -7 26
-15 33 -8 7 -12 16 -9 21 3 5 0 9 -5 9 -6 0 -11 7 -11 15 0 8 -4 15 -10 15 -5
0 -10 4 -10 9 0 5 -23 44 -50 85 -28 42 -49 77 -48 79 2 1 -9 16 -24 32 -16
16 -28 33 -28 37 0 3 -6 13 -13 20 -7 7 -29 36 -49 65 -20 29 -38 49 -42 46
-3 -4 -6 0 -6 8 0 8 -8 22 -17 30 -10 9 -36 38 -58 65 -22 27 -53 61 -68 76
-15 16 -25 28 -21 28 4 0 -7 14 -24 30 -18 17 -32 33 -31 36 0 5 -46 67 -69
90 -7 8 -10 14 -7 14 4 0 -6 17 -22 38 -37 47 -62 86 -89 139 -11 24 -24 40
-28 36 -3 -3 -6 -1 -6 5 0 13 -60 144 -69 152 -7 6 -12 26 -14 52 -1 10 -5 18
-9 18 -4 0 -8 13 -8 29 0 17 -4 33 -10 36 -5 3 -10 17 -10 30 0 13 -4 25 -10
27 -5 2 -11 15 -12 31 -1 15 -5 27 -9 27 -7 0 -32 55 -29 65 1 4 -7 14 -17 23
-10 9 -24 29 -32 45 -8 15 -18 27 -23 27 -4 0 -8 5 -8 10 0 13 -108 120 -121
120 -6 0 -7 5 -3 12 4 6 3 8 -4 4 -6 -3 -18 1 -26 10 -9 8 -16 13 -16 9 0 -3
-10 3 -22 15 -12 11 -29 20 -38 20 -9 0 -21 5 -28 12 -7 7 -12 9 -12 5 0 -4
-10 -2 -22 5 -13 7 -26 11 -30 10 -4 -1 -19 5 -35 13 -15 8 -22 15 -15 15 7 0
10 4 7 10 -3 5 1 22 9 38 8 16 12 32 9 36 -4 3 0 6 7 6 7 0 10 3 7 6 -14 14
89 100 138 116 55 17 187 16 235 -2 3 -1 8 -2 13 -1 4 0 7 -3 7 -8 0 -6 9 -8
20 -6 11 2 20 0 20 -6 0 -5 7 -9 15 -9 20 0 119 -49 123 -61 2 -5 10 -9 17 -9
15 0 177 -107 213 -140 12 -12 22 -17 22 -13 0 4 4 3 8 -2 7 -10 26 -26 107
-90 21 -16 46 -38 56 -47 11 -10 23 -18 28 -18 5 0 11 -4 13 -8 2 -4 23 -23
48 -42 24 -19 49 -39 55 -45 7 -5 26 -21 44 -35 18 -14 39 -31 46 -37 8 -7 16
-13 19 -13 6 0 36 -24 61 -47 7 -7 15 -9 19 -6 3 4 6 -2 6 -12 0 -10 3 -16 6
-12 6 6 76 -41 82 -56 2 -4 7 -5 12 -2 4 2 19 -6 34 -20 14 -13 26 -21 26 -18
0 3 8 -1 18 -9 9 -9 27 -19 40 -22 12 -4 22 -12 22 -18 0 -6 3 -9 6 -5 3 3 26
-6 50 -19 24 -14 44 -22 44 -18 0 4 6 1 14 -5 8 -7 22 -14 32 -16 11 -2 45
-12 76 -23 32 -10 55 -15 51 -9 -4 6 -1 7 8 1 8 -4 30 -9 49 -9 19 0 41 -4 48
-8 6 -5 12 -4 12 1 0 5 12 8 28 7 21 -1 120 21 129 29 1 1 4 15 7 31 3 17 9
44 14 60 7 24 9 240 2 240 -2 0 -9 36 -12 63 -1 12 -5 22 -9 22 -3 0 -6 6 -7
13 -1 23 -11 56 -22 76 -6 12 -7 21 -3 21 4 0 4 4 -2 8 -5 4 -20 27 -32 52
-42 84 -70 129 -77 123 -3 -3 -6 4 -6 16 0 12 -4 19 -10 16 -5 -3 -10 -1 -10
5 0 6 -11 22 -25 35 -13 14 -22 25 -19 25 3 0 -13 18 -36 40 -23 22 -38 40
-33 41 4 0 -2 4 -14 9 -13 5 -23 17 -23 27 0 15 -2 16 -10 3 -8 -13 -10 -12
-10 3 0 9 -4 17 -8 17 -4 0 -23 16 -42 35 -19 19 -41 35 -47 35 -7 0 -13 5
-13 10 0 6 -4 10 -10 10 -5 0 -19 8 -29 18 -29 26 -43 35 -73 51 -16 8 -28 18
-28 23 0 4 -5 8 -11 8 -6 0 -29 12 -52 28 -23 15 -48 28 -56 30 -7 1 -20 9
-28 17 -8 8 -21 15 -28 15 -7 0 -21 7 -29 16 -9 8 -20 12 -26 9 -5 -3 -10 -2
-10 2 0 7 -81 46 -100 49 -3 0 -23 8 -45 18 -22 10 -47 19 -55 21 -8 2 -15 4
-15 5 0 1 -7 3 -15 5 -8 1 -35 8 -60 15 -87 23 -119 30 -176 34 -23 2 -46 6
-50 9 -13 7 -265 3 -270 -4z"/>
</g>
</svg>
